# AST/ASF file generated using VICON BodyLanguage
# -----------------------------------------------
:version 1.10
:name VICON
:units
  mass 1.0
  length 0.45
  angle deg
:documentation
   .ast/.asf automatically generated from VICON data using
   VICON BodyBuilder and BodyLanguage model FoxedUp or BRILLIANT.MOD
:root
   order TX TY TZ RX RY RZ
   axis XYZ
   position 0 0 0  
   orientation 0 0 0 
:bonedata
  begin
     id 1 
     name lhipjoint
     direction 0.558404 -0.748506 0.357664 
     length 2.4234 
     axis 0 0 0  XYZ
  end
  begin
     id 2 
     name lfemur
     direction 0.34202 -0.939693 0  
     length 7.14567  
     axis 0 0 20  XYZ
    dof rx ry rz
    limits (-160.0 20.0)
           (-70.0 70.0)
           (-60.0 70.0)
  end
  begin
     id 3 
     name ltibia
     direction 0.34202 -0.939693 0   
     length 8.13956   
     axis 0 0 20   XYZ
    dof rx
    limits (-10.0 170.0)
  end
  begin
     id 4 
     name lfoot
     direction 0.0791314 -0.217412 0.972867   
     length 2.00134   
     axis -90 7.62852e-016 20   XYZ
    dof rx rz
    limits (-45.0 90.0)
           (-70.0 20.0)
  end
  begin
     id 5 
     name ltoes
     direction 1.53547e-011 -4.21922e-011 1   
     length 1.00735   
     axis -90 7.62852e-016 20   XYZ
    dof rx
    limits (-90.0 20.0)
  end
  begin
     id 6 
     name rhipjoint
     direction -0.496392 -0.78327 0.374276   
     length 2.31584  
     axis 0 0 0  XYZ 
  end
  begin
     id 7 
     name rfemur
     direction -0.34202 -0.939693 0   
     length 7.47417   
     axis 0 0 -20   XYZ
    dof rx ry rz
    limits (-160.0 20.0)
           (-70.0 70.0)
           (-70.0 60.0)
  end
  begin
     id 8 
     name rtibia
     direction -0.34202 -0.939693 0   
     length 7.69071   
     axis 0 0 -20   XYZ
    dof rx
    limits (-10.0 170.0)
 end
 begin
     id 9 
     name rfoot
     direction -0.103069 -0.28318 0.953512   
     length 2.16135  
     axis -90 -7.62852e-016 -20   XYZ
    dof rx rz
    limits (-45.0 90.0)
           (-20.0 70.0)
  end
  begin
     id 10 
     name rtoes
     direction -1.53581e-011 -4.21904e-011 1   
     length 1.07867   
     axis -90 -7.62852e-016 -20   XYZ
    dof rx
    limits (-90.0 20.0)
  end
  begin
     id 11 
     name lowerback
     direction -0.0258961 0.994776 -0.0987407   
     length 2.19412   
     axis 0 0 0   XYZ
    dof rx ry rz
    limits (-20.0 45.0)
           (-30.0 30.0)
           (-30.0 30.0)
  end
  begin
     id 12 
     name upperback
     direction 0.0402454 0.999185 0.00320666   
     length 2.18445   
     axis 0 0 0   XYZ
    dof rx ry rz
    limits (-20.0 45.0)
           (-30.0 30.0)
           (-30.0 30.0)
  end
  begin
     id 13 
     name thorax
     direction 0.0519376 0.997415 0.0496558   
     length 2.21487   
     axis 0 0 0   XYZ
    dof rx ry rz
    limits (-20.0 45.0)
           (-30.0 30.0)
           (-30.0 30.0)
  end
  begin
     id 14 
     name lowerneck
     direction -0.0921276 0.983211 0.157506   
     length 1.61201   
     axis 0 0 0   XYZ
    dof rx ry rz
    limits (-20.0 45.0)
           (-30.0 30.0)
           (-30.0 30.0)
  end
  begin
     id 15 
     name upperneck
     direction 0.0820814 0.98162 -0.172292   
     length 1.65275   
     axis 0 0 0   XYZ
    dof rx ry rz
    limits (-20.0 45.0)
           (-30.0 30.0)
           (-30.0 30.0)
  end
  begin
     id 16
     name head
     direction 0.0336554 0.996413 -0.0776455  
     length 1.66415  
     axis 0 0 0   XYZ
    dof rx ry rz
    limits (-20.0 45.0)
           (-30.0 30.0)
           (-30.0 30.0)
  end
  begin
     id 17 
     name lclavicle
     direction 0.94696 0.284418 -0.149576  
     length 3.41447  
     axis 0 0 0   XYZ
    dof ry rz
    limits (-20.0 10.0)
           (0.0 20.0)
  end
  begin
     id 18 
     name lhumerus
     direction 1 -0.000130264 -9.81312e-005   
     length 5.19964   
     axis 180 -30 -90   XYZ
    dof rx ry rz
    limits (-60.0 90.0)
           (-90.0 90.0)
           (-90.0 90.0)
  end
  begin
     id 19
     name lradius
     direction 1 -4.48961e-011 1.43854e-026   
     length 3.32189   
     axis 180 -30 -90   XYZ
    dof rx
    limits (-10.0 170.0)
  end
  begin
     id 20
     name lwrist
     direction 1 -4.48958e-011 3.1502e-026   
     length 1.66095   
     axis -1.97692e-014 90 90   XYZ
    dof ry
    limits (-180.0 0.0)
 end
  begin
     id 21 
     name lhand
     direction 1 -4.48927e-011 6.3004e-026   
     length 0.645616   
     axis -4.02019e-014 90 90   XYZ
    dof rx rz
    limits (-90.0 90.0)
           (-45.0 45.0)
  end
  begin
     id 22 
     name lfingers
     direction 1 -4.4904e-011 1.26008e-025   
     length 0.520512   
     axis -8.04039e-014 90 90   XYZ
    dof rx
    limits (0.0 90.0)
  end
  begin
     id 23
     name lthumb
     direction 0.707107 -6.34947e-011 0.707107   
     length 0.747354   
     axis -90 45 2.85299e-015   XYZ
    dof rx rz
    limits (-45.0 45.0)
           (-45.0 45.0)
  end
  begin
     id 24 
     name rclavicle
     direction -0.909391 0.383475 -0.161107   
     length 3.25176  
     axis 0 0 0   XYZ 
    dof ry rz
    limits (-10.0 20.0)
           (-20.0 0.0)
  end
  begin
     id 25 
     name rhumerus
     direction -1 -4.48965e-011 -1.81384e-027  
     length 5.6595   
     axis 180 30 90   XYZ
    dof rx ry rz
    limits (-90.0 60.0)
           (-90.0 90.0)
           (-90.0 90.0)
  end
  begin
     id 26 
     name rradius
     direction -1 -4.48996e-011 -8.09397e-027   
     length 3.37604   
     axis 180 30 90   XYZ
    dof rx
    limits (-10.0 170.0)
  end
  begin
     id 27 
     name rwrist
     direction -1 -4.48927e-011 -1.56669e-026   
     length 1.68802   
     axis 1.21142e-014 -90 -90   XYZ
    dof ry
    limits (-180.0 0.0)
  end
  begin
     id 28
     name rhand
     direction -1 -4.48912e-011 -3.13339e-026   
     length 0.824702   
     axis 1.99937e-014 -90 -90   XYZ
    dof rx rz
    limits (-90.0 90.0)
           (-45.0 45.0)
  end
  begin
     id 29
     name rfingers
     direction -1 -4.49011e-011 -6.26677e-026   
     length 0.664896   
     axis 3.99874e-014 -90 -90   XYZ
    dof rx
    limits (0.0 90.0)
  end
  begin
     id 30
     name rthumb
     direction -0.707107 -6.34931e-011 0.707107   
     length 0.954662   
     axis -90 -45 -2.85299e-015   XYZ
    dof rx rz
    limits (-45.0 45.0)
           (-45.0 45.0)
  end
:hierarchy
  begin
    root lhipjoint rhipjoint lowerback
    lhipjoint lfemur
    lfemur ltibia
    ltibia lfoot
    lfoot ltoes
    rhipjoint rfemur
    rfemur rtibia
    rtibia rfoot
    rfoot rtoes
    lowerback upperback
    upperback thorax
    thorax lowerneck lclavicle rclavicle
    lowerneck upperneck
    upperneck head
    lclavicle lhumerus
    lhumerus lradius
    lradius lwrist
    lwrist lhand lthumb
    lhand lfingers
    rclavicle rhumerus
    rhumerus rradius
    rradius rwrist
    rwrist rhand rthumb
    rhand rfingers
  end

#!OML:ASF F:\VICON\USERDATA\INSTALL\rory3\rory3.ASF
:FULLY-SPECIFIED
:DEGREES
287
root 13.1071 17.2562 9.9944 1.10964 3.59949 3.05346
lowerback 7.5358 0.220655 -7.00007
upperback 0.977555 -0.154161 3.59558
thorax -3.18569 0.0286409 7.76943
lowerneck 6.50298 -14.5819 -18.7311
upperneck 26.9707 -24.0205 14.2871
head 11.9546 -11.9958 5.68155
rclavicle 4.96962e-015 2.3059e-014
rhumerus -51.8401 -47.5205 -45.4492
rradius 17.5301
rwrist -2.62216
rhand -20.8209 12.95
rfingers 7.12502
rthumb 5.54724 -16.9573
lclavicle 4.96962e-015 2.3059e-014
lhumerus -60.8609 45.967 45.4067
lradius 16.7029
lwrist -12.4541
lhand -8.1295 28.7018
lfingers 7.12502
lthumb 17.7842 57.9086
rfemur -20.8266 4.65477 1.71237
rtibia 35.42
rfoot -10.7682 -7.74345
rtoes 14.7183
lfemur -7.4757 -2.51659 -22.4746
ltibia 34.6028
lfoot -24.1068 -4.06855
ltoes 0.645559
288
root 13.1142 17.2533 10.0113 1.16348 3.62071 2.97519
lowerback 7.6308 0.180836 -6.84973
upperback 0.830584 -0.20131 3.61118
thorax -3.38509 0.0171476 7.70685
lowerneck 6.26799 -14.5461 -18.2415
upperneck 27.5054 -23.7643 13.4088
head 11.9563 -11.8739 5.32258
rclavicle 2.54444e-014 -3.18055e-015
rhumerus -54.9461 -48.7237 -41.8542
rradius 16.9781
rwrist -0.394221
rhand -20.4991 11.7493
rfingers 7.12502
rthumb 5.85799 -18.1497
lclavicle 2.54444e-014 -3.18055e-015
lhumerus -58.5344 45.0737 48.3854
lradius 16.8817
lwrist -12.8677
lhand -8.49588 30.4231
lfingers 7.12502
lthumb 17.4317 59.6615
rfemur -20.8438 4.59976 1.77089
rtibia 35.4868
rfoot -10.804 -7.7564
rtoes 14.5975
lfemur -7.46144 -2.62418 -22.4329
ltibia 34.624
lfoot -24.1735 -4.03869
ltoes 1.15476
289
root 13.1155 17.2498 10.0297 1.23737 3.53477 2.96017
lowerback 7.53366 0.179846 -6.84294
upperback 0.854801 -0.195398 3.63165
thorax -3.30622 0.0158215 7.72255
lowerneck 5.87799 -14.4848 -17.9801
upperneck 27.8359 -23.5728 13.0678
head 12.0353 -11.7601 5.16574
rclavicle 2.28602e-015 1.27222e-014
rhumerus -56.4541 -48.9425 -40.3945
rradius 16.8858
rwrist 0.180757
rhand -20.3698 10.3811
rfingers 7.12502
rthumb 5.98279 -19.5144
lclavicle 2.28602e-015 1.27222e-014
lhumerus -54.9518 43.3159 53.1106
lradius 17.5782
lwrist -11.5844
lhand -8.29514 32.316
lfingers 7.12502
lthumb 17.6248 61.5372
rfemur -20.95 4.64136 1.78721
rtibia 35.5794
rfoot -10.8767 -7.7485
rtoes 14.0545
lfemur -7.47276 -2.71651 -22.4497
ltibia 34.6583
lfoot -24.2747 -3.86285
ltoes 1.5475
290
root 13.1093 17.2499 10.0443 1.37621 3.45582 2.86515
lowerback 7.25183 0.179747 -6.8505
upperback 0.998792 -0.17608 3.69817
thorax -3.0004 0.00750339 7.79081
lowerneck 5.51562 -14.4598 -18.0925
upperneck 27.8901 -23.5819 13.3661
head 12.1888 -11.7309 5.2588
rclavicle 5.56597e-015 2.54444e-014
rhumerus -57.0412 -48.8755 -40.0056
rradius 16.8885
rwrist 0.0477525
rhand -20.1748 9.64757
rfingers 7.12502
rthumb 6.17102 -20.2426
lclavicle 5.56597e-015 2.54444e-014
lhumerus -52.247 43.0215 55.6111
lradius 17.1424
lwrist -12.4565
lhand -7.81274 32.1555
lfingers 7.12502
lthumb 18.089 61.3343
rfemur -21.1612 4.94961 1.90035
rtibia 35.6813
rfoot -11.035 -7.95333
rtoes 13.8498
lfemur -7.59522 -2.77985 -22.3238
ltibia 34.6891
lfoot -24.3353 -3.71396
ltoes 1.46234
291
root 13.0984 17.2518 10.0585 1.48024 3.44506 2.78046
lowerback 6.88445 0.154092 -6.89602
upperback 1.28293 -0.187649 3.77439
thorax -2.49411 -0.0298352 7.89225
lowerneck 5.16006 -14.4855 -18.2299
upperneck 27.743 -23.6517 13.7422
head 12.2871 -11.7278 5.37156
rclavicle -1.0138e-014 1.90833e-014
rhumerus -57.585 -49.1347 -39.5213
rradius 16.9244
rwrist 0.40822
rhand -19.7949 9.62283
rfingers 7.12502
rthumb 6.53783 -20.2563
lclavicle -1.0138e-014 1.90833e-014
lhumerus -49.7054 43.2671 57.4564
lradius 16.2935
lwrist -14.2862
lhand -7.5245 30.7229
lfingers 7.12502
lthumb 18.3663 59.8758
rfemur -21.3101 5.38755 2.01542
rtibia 35.7784
rfoot -11.2226 -8.34807
rtoes 13.8848
lfemur -7.70187 -2.81101 -22.1589
ltibia 34.7202
lfoot -24.378 -3.72448
ltoes 1.30837
